<svg xmlns="http://www.w3.org/2000/svg" viewBox="-11 24 5756 1316">
  <g id="Page-1">
    <g id="Complete-logo-_x28_white-on-black_x29_">
      <linearGradient id="Triangle-3_1_" x1="123.7" x2="105.5" y1="6820.5" y2="6840.1" gradientTransform="matrix(50.9832 0 0 -45.2264 -4581 310411)" gradientUnits="userSpaceOnUse">
        <stop offset="0" stop-color="#fff"/>
        <stop offset="1"/>
      </linearGradient>
      <path id="Triangle-3" fill="url(#Triangle-3_1_)" d="M717 138l616 1093H101z"/>
      <path id="ZEIT" fill="#333" d="M2173 960h494v-86h-371l365-521v-75h-482v86h359l-365 521v75zm1011 0h444v-86h-343V655h298v-86h-298V364h343v-86h-444v682zm978 0h432v-86h-165V364h165v-86h-432v86h166v510h-166v86zm1144 0h100V364h232v-86h-562v86h230v596z"/>
    </g>
  </g>
</svg>
